<?xml version="1.0" encoding="UTF-8" standalone="no"?>
<!-- Created with Inkscape (http://www.inkscape.org/) -->

<svg
   width="47.116581mm"
   height="33.814442mm"
   viewBox="0 0 47.116582 33.814442"
   version="1.1"
   id="svg1"
   sodipodi:docname="favicon.svg"
   inkscape:version="1.3.2 (091e20e, 2023-11-25)"
   xmlns:inkscape="http://www.inkscape.org/namespaces/inkscape"
   xmlns:sodipodi="http://sodipodi.sourceforge.net/DTD/sodipodi-0.dtd"
   xmlns="http://www.w3.org/2000/svg"
   xmlns:svg="http://www.w3.org/2000/svg">
  <sodipodi:namedview
     id="namedview1"
     pagecolor="#ffffff"
     bordercolor="#000000"
     borderopacity="0.25"
     inkscape:showpageshadow="2"
     inkscape:pageopacity="0.0"
     inkscape:pagecheckerboard="0"
     inkscape:deskcolor="#d1d1d1"
     inkscape:document-units="mm"
     inkscape:zoom="6.5424358"
     inkscape:cx="64.654818"
     inkscape:cy="56.55386"
     inkscape:window-width="2560"
     inkscape:window-height="1376"
     inkscape:window-x="0"
     inkscape:window-y="27"
     inkscape:window-maximized="1"
     inkscape:current-layer="layer1" />
  <defs
     id="defs1" />
  <g
     inkscape:label="Layer 1"
     inkscape:groupmode="layer"
     id="layer1"
     transform="translate(-40.021233,-72.9328)">
    <rect
       style="fill:#ffffff;stroke-width:0.499999;stroke-linecap:round;stroke-linejoin:round"
       id="rect1"
       width="47.116581"
       height="33.814442"
       x="40.021233"
       y="72.9328" />
    <path
       d="m 59.911577,103.07292 v -2.46368 c 9.7e-5,-1.97456 1.666935,-3.575189 3.722977,-3.575091 2.055892,1.12e-4 3.72249,1.600673 3.722587,3.575091 l -0.02234,2.46368"
       style="display:inline;fill:none;stroke:#000000;stroke-width:0.747189;stroke-linecap:round;stroke-linejoin:round;stroke-dasharray:none"
       id="path30-8-5"
       sodipodi:nodetypes="ccc" />
    <path
       id="path18-7-7-6"
       style="fill:none;stroke:#000000;stroke-width:0.747189;stroke-linecap:round;stroke-linejoin:round;stroke-dasharray:none"
       d="m 63.611698,73.306373 c 0,2.040702 -1.94847,1.682746 -1.21898,3.593242 -4.897424,0.587709 -8.874937,4.483166 -9.55225,9.57541 -1.022932,-1.225129 -2.495762,-2.038108 -4.118358,-2.323676 6.88e-4,-0.003 0.0015,-0.006 0.0022,-0.0093 0.449531,-2.121749 -1.287333,-1.569935 -1.287333,-3.613707 0,2.044676 -1.956119,1.680952 -1.214736,3.604053 0,0 -6.94e-4,0.0052 -7.47e-4,0.006 -3.166289,0.532769 -5.567592,3.074221 -5.567472,6.135464 0.021,1.363971 0.527934,2.684098 1.443316,3.758497 1.642763,-0.53779 3.539727,-0.825533 5.477899,-0.830927 1.862497,0.0015 3.690428,0.263152 5.293717,0.758726 0.340853,-0.423455 0.62199,-0.884799 0.836725,-1.37305 0.20881,0.476273 0.450085,0.93702 0.722039,1.37884 2.593524,-1.281997 5.859377,-1.984467 9.232154,-1.98582 3.351966,0.0015 6.599027,0.695327 9.185423,1.963039 0.277991,-0.450354 0.524063,-0.920433 0.736332,-1.406637 0.226264,0.53185 0.530923,1.032683 0.905459,1.488491 1.645513,-0.540135 3.546961,-0.829133 5.489862,-0.834401 1.874377,0.0015 3.713509,0.266455 5.323836,0.767991 0.866359,-1.057744 1.344209,-2.340937 1.364547,-3.664284 -7.4e-5,-2.99862 -2.303487,-5.501234 -5.373643,-6.103028 0.0037,-0.01674 0.0079,-0.0319 0.01158,-0.04901 0.449531,-2.121749 -1.287333,-1.569935 -1.287333,-3.613707 0,2.044676 -1.956119,1.680952 -1.214735,3.604053 0,0 -0.0022,0.01405 -0.003,0.01659 -1.715091,0.268442 -3.271135,1.124946 -4.323013,2.428701 -0.636389,-5.141813 -4.637356,-9.089588 -9.573095,-9.678119 0.433527,-2.09692 -1.2908,-1.556291 -1.2908,-3.593241 z" />
    <path
       style="fill:none;stroke:#000000;stroke-width:0.747189;stroke-linecap:round;stroke-linejoin:round;stroke-dasharray:none;stroke-opacity:1"
       d="m 54.427812,93.965771 v 3.491802"
       id="path22-1-0-7" />
    <path
       style="fill:none;stroke:#000000;stroke-width:0.747189;stroke-linecap:round;stroke-linejoin:round;stroke-dasharray:none;stroke-opacity:1"
       d="m 72.845389,93.942989 -0.0045,3.514584"
       id="path23-5-0-3" />
    <path
       style="fill:none;stroke:#000000;stroke-width:0.747189;stroke-linecap:round;stroke-linejoin:round;stroke-dasharray:none;stroke-opacity:1"
       d="m 74.487181,94.024843 v 3.359035"
       id="path24-0-8-6" />
    <path
       style="fill:none;stroke:#000000;stroke-width:0.747189;stroke-linecap:round;stroke-linejoin:round;stroke-dasharray:none;stroke-opacity:1"
       d="m 85.300879,93.958433 0.02129,8.521677"
       id="path25-5-9-5"
       sodipodi:nodetypes="cc" />
    <path
       style="fill:none;stroke:#000000;stroke-width:0.747189;stroke-linecap:round;stroke-linejoin:round;stroke-dasharray:none;stroke-opacity:1"
       d="m 52.869041,93.95998 v 3.40474"
       id="path26-6-3-6" />
    <path
       style="fill:none;stroke:#000000;stroke-width:0.747189;stroke-linecap:round;stroke-linejoin:round;stroke-dasharray:none;stroke-opacity:1"
       d="m 42.097432,94.032181 0.0021,8.447929"
       id="path27-6-5-3"
       sodipodi:nodetypes="cc" />
    <path
       id="path39-8-2-4-4"
       style="fill:none;stroke:#000000;stroke-width:0.747189;stroke-linecap:round;stroke-dasharray:none;stroke-opacity:1"
       d="m 40.394827,104.08754 c 7.341113,-0.11205 18.930549,0.659 23.184697,2.26051 4.254145,-1.60151 15.843582,-2.37256 23.184695,-2.26051"
       sodipodi:nodetypes="ccc" />
  </g>
</svg>
