<?xml version="1.0" encoding="UTF-8" standalone="no"?>
<!-- Created with Inkscape (http://www.inkscape.org/) -->

<svg
   width="164.3559mm"
   height="33.814442mm"
   viewBox="0 0 164.3559 33.814442"
   version="1.1"
   id="svg1"
   sodipodi:docname="logo_verhalenpaleis_neg.svg"
   inkscape:version="1.3.2 (091e20e, 2023-11-25)"
   xmlns:inkscape="http://www.inkscape.org/namespaces/inkscape"
   xmlns:sodipodi="http://sodipodi.sourceforge.net/DTD/sodipodi-0.dtd"
   xmlns="http://www.w3.org/2000/svg"
   xmlns:svg="http://www.w3.org/2000/svg">
  <sodipodi:namedview
     id="namedview1"
     pagecolor="#ffffff"
     bordercolor="#000000"
     borderopacity="0.25"
     inkscape:showpageshadow="2"
     inkscape:pageopacity="0.0"
     inkscape:pagecheckerboard="0"
     inkscape:deskcolor="#d1d1d1"
     inkscape:document-units="mm"
     inkscape:zoom="1"
     inkscape:cx="267"
     inkscape:cy="61"
     inkscape:window-width="2560"
     inkscape:window-height="1376"
     inkscape:window-x="0"
     inkscape:window-y="27"
     inkscape:window-maximized="1"
     inkscape:current-layer="layer1" />
  <defs
     id="defs1" />
  <g
     inkscape:label="Layer 1"
     inkscape:groupmode="layer"
     id="layer1"
     transform="translate(-40.021233,-72.9328)">
    <path
       d="m 59.911577,103.07292 v -2.46368 c 9.7e-5,-1.97456 1.666935,-3.575189 3.722977,-3.575091 2.055892,1.12e-4 3.72249,1.600673 3.722587,3.575091 l -0.02234,2.46368"
       style="display:inline;fill:none;stroke:#000000;stroke-width:0.747189;stroke-linecap:round;stroke-linejoin:round;stroke-dasharray:none"
       id="path30-8-5"
       sodipodi:nodetypes="ccc" />
    <path
       style="font-size:24px;font-family:'Playwrite BE VLG';-inkscape-font-specification:'Playwrite BE VLG';white-space:pre;stroke-width:0.902215;stroke-linecap:round;stroke-linejoin:round"
       d="m 94.381049,96.650939 q -0.21771,0 -0.30937,-0.1375 -0.10303,-0.12613 -0.0917,-0.28645 0.0108,-0.17196 0.12613,-0.29791 0.11459,-0.1375 0.33229,-0.1375 0.28645,0 0.59582,-0.17178 0.30937,-0.18333 0.71041,-0.57291 0.38958,-0.401035 0.91665,-1.065609 0.52708,-0.664573 1.24894,-1.627058 0.12613,-0.171782 0.26354,-0.114582 0.14887,0.04583 0.19479,0.229164 0.0458,0.171782 -0.0917,0.378119 -0.77915,1.099983 -1.35206,1.833305 -0.57291,0.733321 -1.00832,1.168731 -0.43541,0.43541 -0.80207,0.61874 -0.36666,0.18333 -0.73332,0.18333 z m 7.722801,0 q -0.43541,0 -0.72187,-0.14886 -0.27499,-0.14905 -0.40103,-0.4125 -0.12595,-0.27499 -0.12595,-0.61874 0,-0.3552 0.1375,-0.756236 l 0.73332,-2.199967 q 0.11458,-0.343745 0.0801,-0.584366 -0.0229,-0.252079 -0.20625,-0.378119 -0.17178,-0.137498 -0.51562,-0.137498 -0.3552,0 -0.74478,0.18333 -0.378121,0.183331 -0.756241,0.527076 -0.36666,0.343745 -0.7104,0.813529 -0.33229,0.458326 -0.60729,1.019776 l -0.11458,-0.790613 q 0.44687,-0.664573 0.85937,-1.157274 0.41249,-0.504159 0.81352,-0.836445 0.401041,-0.332287 0.802081,-0.492701 0.40103,-0.171782 0.81352,-0.171782 0.65312,0 0.98541,0.297912 0.33228,0.297912 0.36666,0.836445 0.0458,0.538534 -0.18333,1.24894 l -0.6302,1.924973 q -0.18333,0.54999 -0.0917,0.76769 0.10304,0.20625 0.48125,0.20625 0.16041,0 0.22916,0.1375 0.0687,0.12613 0.0343,0.29791 -0.0229,0.16042 -0.16041,0.28645 -0.12613,0.1375 -0.36666,0.1375 z m -5.133261,-0.0229 q -0.18333,0 -0.34374,-0.0801 -0.16042,-0.0801 -0.0917,-0.29791 l 3.09371,-9.533191 q 0.33228,-1.019776 0.802071,-1.478103 0.46978,-0.458326 1.13435,-0.458326 0.37812,0 0.65312,0.183331 0.28645,0.171782 0.44687,0.4927 0.16041,0.320829 0.16041,0.767697 0,0.343745 -0.10303,0.74478 -0.0917,0.401036 -0.28646,0.836446 -0.19478,0.43541 -0.45832,0.893736 -0.26354,0.446868 -0.60728,0.928111 -0.34375,0.469785 -0.75624,0.951027 -0.40104,0.481243 -0.870821,0.962486 -0.46979,0.469784 -0.9854,0.939569 l -1.24894,3.849937 q -0.0458,0.14887 -0.16042,0.21771 -0.11458,0.0801 -0.37812,0.0801 z m 2.18851,-5.373881 q 0.37812,-0.43541 0.72187,-0.882278 0.343741,-0.458326 0.641651,-0.916652 0.29791,-0.458327 0.53854,-0.905195 0.24062,-0.446868 0.40103,-0.847904 0.17196,-0.412493 0.26354,-0.767696 0.0917,-0.366661 0.0917,-0.653115 0,-0.171783 -0.0574,-0.297913 -0.0458,-0.12613 -0.13749,-0.18333 -0.0801,-0.05738 -0.22917,-0.05738 -0.1375,0 -0.27499,0.103214 -0.1375,0.09167 -0.26354,0.343744 -0.12613,0.240622 -0.275,0.664574 z m 2.944751,5.396791 q -0.21771,0 -0.28646,-0.1375 -0.0687,-0.12613 -0.0108,-0.28645 0.0458,-0.17196 0.19479,-0.29791 0.14904,-0.1375 0.36666,-0.1375 0.54999,0 1.18019,-0.20625 0.6302,-0.20624 1.24894,-0.59582 0.12613,-0.0917 0.24062,-0.0229 0.11458,0.0574 0.18333,0.19479 0.0687,0.1375 0.0574,0.28646 0,0.13749 -0.11458,0.20624 -0.56145,0.35521 -1.11144,0.58437 -0.54999,0.2177 -1.0427,0.30937 -0.4927,0.10321 -0.90519,0.10321 z m 2.66973,-1.58122 q 0.38958,-0.19479 0.73332,-0.45833 0.35521,-0.263538 0.64166,-0.549992 0.34374,-0.286454 0.60728,-0.61874 0.275,-0.343745 0.42395,-0.68749 0.16042,-0.355203 0.16042,-0.676031 0,-0.320829 -0.1375,-0.481243 -0.1375,-0.171782 -0.44687,-0.171782 -0.16041,0 -0.24062,-0.137498 -0.0687,-0.137498 -0.0574,-0.320828 0.0229,-0.183331 0.14887,-0.320829 0.12613,-0.137498 0.36666,-0.137498 0.44687,0 0.75624,0.183331 0.32082,0.171963 0.48124,0.481243 0.16041,0.297912 0.16041,0.687489 0,0.504159 -0.2177,1.008318 -0.20625,0.492701 -0.57291,0.962485 -0.36666,0.458327 -0.83645,0.87082 -0.34374,0.320825 -0.76769,0.595825 -0.4125,0.275 -0.84791,0.50416 z m 1.99372,1.59268 q -0.51562,0 -0.91665,-0.14887 -0.40104,-0.13749 -0.68749,-0.40103 -0.29791,-0.26354 -0.4927,-0.60728 -0.19479,-0.35521 -0.28646,-0.75624 -0.0917,-0.412496 -0.0917,-0.836447 0,-0.469785 0.11458,-0.951028 0.11458,-0.4927 0.33229,-0.928111 0.20624,-0.446868 0.52707,-0.790612 0.32083,-0.343745 0.75624,-0.538534 0.42395,-0.194789 0.95103,-0.194789 0.12613,0 0.17178,0.137498 0.0345,0.137498 0,0.320829 -0.0458,0.18333 -0.1375,0.320828 -0.10303,0.137498 -0.24062,0.137498 -0.32083,0 -0.58437,0.229163 -0.26353,0.217705 -0.45832,0.584366 -0.19479,0.355203 -0.29791,0.790613 -0.11459,0.423952 -0.11459,0.836446 0,0.355203 0.0917,0.698948 0.0801,0.343742 0.275,0.618742 0.19478,0.26354 0.51561,0.42395 0.32083,0.16041 0.79062,0.16041 0.63019,0 1.27185,-0.33228 0.64166,-0.34375 1.23748,-0.996862 0.59583,-0.653115 1.06561,-1.592684 0.0574,-0.09167 0.19479,-0.08012 0.14887,0 0.26354,0.09167 0.11458,0.08012 0.0345,0.263538 -0.37812,0.847904 -0.87082,1.512477 -0.4927,0.653111 -1.06561,1.111441 -0.56145,0.45832 -1.15727,0.68749 -0.59583,0.22916 -1.19165,0.22916 z m 3.98742,-0.0229 q -0.61874,0 -0.88228,-0.28645 -0.25208,-0.28645 -0.24062,-0.7677 0.0229,-0.48124 0.20625,-1.088522 l 1.95934,-6.038449 q 0.0688,-0.229163 0.17179,-0.297912 0.11458,-0.06875 0.34374,-0.06875 0.3552,0 0.44687,0.114581 0.10303,0.103214 0.0229,0.332287 l -0.71041,2.188508 h 1.44373 q 0.12613,0 0.17178,0.114582 0.0574,0.103213 -0.0108,0.343745 -0.0572,0.217705 -0.17178,0.343744 -0.11458,0.114582 -0.24062,0.114582 h -1.4781 l -1.08853,3.334324 q -0.12613,0.40104 -0.0687,0.60728 0.0687,0.19479 0.30937,0.19479 0.34375,0 0.61874,-0.22916 0.275,-0.22916 0.46979,-0.46979 0.0688,-0.10321 0.18333,-0.13749 0.12613,-0.0345 0.29791,0.0801 0.19479,0.11459 0.20625,0.22917 0.0108,0.11458 -0.0572,0.24062 -0.1375,0.22916 -0.40104,0.50416 -0.25208,0.27499 -0.6302,0.45832 -0.36666,0.18333 -0.87082,0.18333 z m 8.71964,0.0343 q -0.6302,0 -1.00832,-0.24062 -0.37811,-0.24062 -0.53853,-0.65312 -0.14886,-0.41249 -0.12613,-0.91665 0.0345,-0.515618 0.20625,-1.054151 l 0.6302,-1.913513 q 0.0687,-0.240621 0,-0.366661 -0.0574,-0.12613 -0.24062,-0.12613 -0.16042,0 -0.30937,0.09166 -0.14905,0.09167 -0.32083,0.297912 -0.16042,0.194789 -0.35521,0.527076 -0.10321,0.148866 -0.19478,0.206247 -0.0917,0.05738 -0.30938,0.02292 -0.22916,-0.05738 -0.26353,-0.206247 -0.0458,-0.148866 0.0343,-0.320828 0.20625,-0.412494 0.46979,-0.744781 0.27499,-0.343744 0.61874,-0.538533 0.34374,-0.194789 0.75624,-0.194789 0.37811,0 0.61874,0.137498 0.25208,0.12613 0.36666,0.366661 0.11458,0.240621 0.11458,0.56145 0,0.30937 -0.11458,0.664573 l -0.42396,1.329147 q -0.11458,0.343744 -0.20624,0.721864 -0.0801,0.378119 -0.0687,0.698945 0.0108,0.32083 0.19479,0.52708 0.18333,0.20625 0.61874,0.20625 0.29791,0 0.57291,-0.12613 0.27499,-0.1375 0.52707,-0.36667 0.26354,-0.22916 0.46979,-0.52707 0.2177,-0.309372 0.37812,-0.653117 0.17196,-0.343745 0.27499,-0.698948 0.0917,-0.286454 0.16042,-0.641657 0.0687,-0.355202 0.0574,-0.790613 -0.275,-0.194788 -0.4125,-0.412493 -0.12613,-0.217705 -0.12613,-0.481243 0,-0.252079 0.1375,-0.401035 0.14905,-0.160415 0.38958,-0.160415 0.19479,0 0.3552,0.103214 0.17196,0.103033 0.29791,0.30937 0.12595,0.206247 0.18333,0.538534 0.0688,0.320828 0.0688,0.767696 0,0.515617 -0.14886,1.1229 -0.14887,0.595824 -0.43541,1.191648 -0.28646,0.584369 -0.72187,1.077069 -0.42395,0.48124 -0.97394,0.77915 -0.53853,0.28646 -1.20311,0.28646 z m 5.53429,-2.543713 q -0.65311,-0.114582 -1.14581,-0.423952 -0.4927,-0.30937 -0.89374,-0.859362 -0.40103,-0.549991 -0.80207,-1.386437 -0.11458,-0.229163 0.0108,-0.366661 0.12613,-0.148866 0.32082,-0.148866 0.19479,-0.01083 0.28646,0.183331 0.30937,0.664573 0.64166,1.122899 0.32082,0.446868 0.73332,0.710406 0.41249,0.263538 0.99686,0.378119 0.14886,0.02292 0.20624,0.160415 0.0574,0.137497 0.0345,0.297912 -0.0229,0.160414 -0.12613,0.263537 -0.0917,0.103214 -0.26354,0.06875 z m 0.0229,-0.802071 q 0.36666,0.06875 0.8479,0.03446 0.48125,-0.04583 0.93957,-0.206247 0.45833,-0.171963 0.75624,-0.458327 0.30937,-0.286454 0.30937,-0.710405 0,-0.297913 -0.14886,-0.423952 -0.1375,-0.137498 -0.44687,-0.137498 -0.16042,0 -0.24062,-0.137498 -0.0687,-0.137498 -0.0572,-0.320829 0.0229,-0.18333 0.14886,-0.320828 0.12613,-0.137498 0.36666,-0.137498 0.29791,0 0.54999,0.09167 0.26354,0.09167 0.44687,0.263538 0.19479,0.171782 0.29791,0.401036 0.11459,0.229163 0.11459,0.515617 0,0.664573 -0.36667,1.145816 -0.3552,0.481242 -0.95102,0.779154 -0.58437,0.297913 -1.27186,0.401036 -0.68749,0.09166 -1.32914,0.01083 z m 2.39475,3.334324 q -0.54999,0 -0.97394,-0.14887 -0.42395,-0.13749 -0.73332,-0.40103 -0.30937,-0.26354 -0.50416,-0.60728 -0.19479,-0.35521 -0.28645,-0.75624 -0.10322,-0.412496 -0.10322,-0.836448 0,-0.469784 0.11458,-0.951027 0.11459,-0.492701 0.33229,-0.928111 0.20625,-0.446868 0.52708,-0.790613 0.32082,-0.343744 0.75623,-0.538533 0.42396,-0.194789 0.95103,-0.194789 0.12613,0 0.17178,0.137498 0.0345,0.137498 0,0.320828 -0.0458,0.183331 -0.13749,0.320829 -0.10304,0.137498 -0.24063,0.137498 -0.32082,0 -0.58436,0.229163 -0.26354,0.217705 -0.45833,0.584366 -0.19479,0.355203 -0.29791,0.790613 -0.11458,0.423952 -0.11458,0.836446 0,0.355203 0.0917,0.698947 0.0801,0.343743 0.28646,0.618743 0.19479,0.26354 0.54999,0.43541 0.34374,0.16041 0.8479,0.16041 0.72187,0 1.36352,-0.54999 0.6302,-0.561449 1.20311,-1.592684 0.58437,-1.031234 1.13436,-2.440587 0.0345,-0.09167 0.16041,-0.103034 0.1375,-0.01083 0.28646,0.04583 0.14886,0.04583 0.24062,0.148866 0.10321,0.09166 0.0574,0.229163 -0.64166,1.695808 -1.31769,2.853082 -0.67603,1.145814 -1.4781,1.718724 -0.80207,0.57291 -1.84477,0.57291 z m 6.93215,-0.0108 q -0.42395,0 -0.68748,-0.14886 -0.26354,-0.14905 -0.40104,-0.40104 -0.12613,-0.25208 -0.1375,-0.57291 0,-0.33228 0.11458,-0.67603 0.0687,-0.22916 0.20625,-0.549989 0.14887,-0.332286 0.30937,-0.698947 0.17196,-0.37812 0.32083,-0.767697 0.16041,-0.389577 0.26354,-0.733322 0.0917,-0.332287 0,-0.446868 -0.0917,-0.114582 -0.28646,-0.114582 -0.28645,0 -0.64165,0.114582 -0.35521,0.114581 -0.73333,0.229163 -0.37812,0.103213 -0.72186,0.103213 -0.25208,0 -0.42395,-0.160414 -0.17178,-0.171962 -0.26354,-0.423952 -0.0801,-0.252079 -0.0801,-0.538533 0,-0.274996 0.0917,-0.527075 0.0917,-0.25208 0.26354,-0.412494 0.18333,-0.171782 0.44686,-0.171782 0.275,0 0.40104,0.160414 0.12613,0.160414 0.12613,0.378119 0,0.183331 -0.0801,0.401036 -0.0687,0.217705 -0.2177,0.389577 0.17178,0 0.42395,-0.06875 0.26354,-0.08012 0.56143,-0.18333 0.29793,-0.103034 0.61874,-0.171783 0.32083,-0.08012 0.61874,-0.08012 0.33231,0 0.57293,0.160414 0.25206,0.148866 0.34373,0.504159 0.0917,0.355203 -0.0687,0.951027 -0.0917,0.320828 -0.25208,0.710406 -0.14887,0.378119 -0.32083,0.767696 -0.16042,0.37812 -0.30937,0.721864 -0.14905,0.332288 -0.22917,0.584368 -0.12612,0.42396 -0.0343,0.61874 0.10303,0.19479 0.46979,0.19479 0.16041,0 0.22916,0.1375 0.0687,0.12613 0.0343,0.29791 -0.0229,0.16042 -0.16041,0.28646 -0.12613,0.13749 -0.36666,0.13749 z m 0,0 q -0.2177,0 -0.28645,-0.13749 -0.0687,-0.12613 -0.0108,-0.28646 0.0458,-0.17196 0.19479,-0.29791 0.14887,-0.1375 0.36666,-0.1375 0.25208,0 0.56145,-0.18333 0.30937,-0.19479 0.69895,-0.60728 0.38958,-0.412495 0.88228,-1.06561 0.50416,-0.653115 1.14582,-1.581226 0.12595,-0.183331 0.26353,-0.12613 0.1375,0.05738 0.18333,0.240621 0.0574,0.171783 -0.0801,0.37812 -0.73333,1.099983 -1.29478,1.833305 -0.54999,0.73332 -0.9854,1.16873 -0.44686,0.43541 -0.83644,0.61874 -0.38958,0.18333 -0.80207,0.18333 z m 7.75718,0 q -0.43541,0 -0.72187,-0.14886 -0.27499,-0.14905 -0.40103,-0.4125 -0.12613,-0.27499 -0.12613,-0.61874 0,-0.3552 0.1375,-0.756235 l 0.73332,-2.199967 q 0.11458,-0.343744 0.0801,-0.584366 -0.0229,-0.252079 -0.20625,-0.378119 -0.17178,-0.137498 -0.51562,-0.137498 -0.3552,0 -0.74478,0.183331 -0.37812,0.18333 -0.75624,0.527075 -0.36666,0.343745 -0.7104,0.813529 -0.33229,0.458327 -0.60729,1.019776 l -0.11458,-0.790612 q 0.44687,-0.664574 0.85936,-1.157275 0.4125,-0.504158 0.81353,-0.836445 0.40104,-0.332287 0.80208,-0.492701 0.40103,-0.171782 0.81352,-0.171782 0.65312,0 0.98541,0.297912 0.33228,0.297912 0.36666,0.836446 0.0458,0.538533 -0.18333,1.248939 l -0.6302,1.924972 q -0.18333,0.54999 -0.0917,0.7677 0.10322,0.20624 0.48125,0.20624 0.16041,0 0.22916,0.1375 0.0687,0.12613 0.0343,0.29791 -0.0229,0.16042 -0.16041,0.28646 -0.12613,0.13749 -0.36666,0.13749 z m -5.13326,-0.0229 q -0.18333,0 -0.34374,-0.0801 -0.16042,-0.0801 -0.0917,-0.29791 l 3.09371,-9.53319 q 0.33228,-1.019776 0.80207,-1.478102 0.46978,-0.458327 1.13435,-0.458327 0.37812,0 0.65312,0.183331 0.28645,0.171782 0.44687,0.492701 0.16041,0.320828 0.16041,0.767696 0,0.343745 -0.10303,0.744781 -0.0917,0.401035 -0.28645,0.836445 -0.19479,0.43541 -0.45833,0.893737 -0.26354,0.446868 -0.60728,0.92811 -0.34375,0.469785 -0.75624,0.951028 -0.40104,0.481242 -0.87082,0.962485 -0.46979,0.469784 -0.9854,0.939569 l -1.24894,3.849946 q -0.0458,0.14886 -0.16042,0.2177 -0.11458,0.0801 -0.37812,0.0801 z m 2.18851,-5.373879 q 0.37812,-0.43541 0.72187,-0.882278 0.34374,-0.458327 0.64165,-0.916653 0.29791,-0.458326 0.53854,-0.905195 0.24062,-0.446868 0.40103,-0.847903 0.17196,-0.412494 0.26354,-0.767697 0.0917,-0.366661 0.0917,-0.653115 0,-0.171782 -0.0572,-0.297912 -0.0458,-0.12613 -0.13749,-0.183331 -0.0803,-0.05738 -0.22917,-0.05738 -0.1375,0 -0.27499,0.103214 -0.1375,0.09167 -0.26354,0.343745 -0.12595,0.240621 -0.275,0.664573 z m 2.94475,5.396789 q -0.16042,0 -0.22916,-0.13749 -0.0801,-0.12613 -0.0458,-0.28646 0.0229,-0.17196 0.16042,-0.29791 0.13749,-0.1375 0.37812,-0.1375 0.29791,0 0.60728,-0.12613 0.29791,-0.12595 0.59582,-0.36666 0.29791,-0.25208 0.54999,-0.595824 0.25208,-0.343744 0.44687,-0.767696 0.0572,-0.171782 0.19479,-0.160415 0.14887,0 0.25208,0.114582 0.11458,0.103033 0.0687,0.263538 -0.20625,0.584365 -0.52708,1.054155 -0.32082,0.45832 -0.7104,0.77915 -0.38958,0.32083 -0.83645,0.4927 -0.44687,0.17196 -0.90519,0.17196 z m 3.84992,0 q -0.4927,0 -0.8479,-0.2177 -0.35521,-0.22916 -0.54999,-0.65312 -0.18333,-0.42395 -0.18333,-0.99686 0,-0.504155 0.13749,-1.088521 0.14887,-0.584366 0.43541,-1.145816 0.29792,-0.56145 0.73333,-1.019776 0.44686,-0.469785 1.04269,-0.744781 0.59582,-0.274996 1.35206,-0.274996 0.4927,0 0.96249,0.194789 0.46978,0.183331 0.8479,0.469785 l -0.14887,0.790613 q -0.4927,-0.320829 -0.88227,-0.43541 -0.37812,-0.114582 -0.75624,-0.114582 -0.58437,0 -1.03124,0.217705 -0.43541,0.217705 -0.75624,0.584366 -0.30937,0.366661 -0.51561,0.802071 -0.19479,0.43541 -0.29791,0.87082 -0.0917,0.423952 -0.0917,0.767697 0,0.355206 0.10321,0.595826 0.10304,0.22916 0.29792,0.3552 0.19478,0.12595 0.48124,0.12595 0.40103,0 0.82499,-0.28645 0.42395,-0.28646 0.8479,-0.824991 0.43541,-0.549991 0.82499,-1.294772 l 0.25208,0.504159 q -0.50416,1.088524 -1.06561,1.707264 -0.56145,0.61874 -1.08853,0.87082 -0.51561,0.24062 -0.92811,0.24062 z m 3.42599,0 q -0.43541,0 -0.7104,-0.14886 -0.275,-0.14905 -0.4125,-0.4125 -0.12613,-0.27499 -0.12613,-0.61874 0.0108,-0.3552 0.1375,-0.756235 l 1.24894,-3.792651 q 0.0801,-0.229163 0.18333,-0.297912 0.11458,-0.06875 0.33229,-0.06875 0.3552,0 0.44686,0.114582 0.10304,0.103033 0.0229,0.332287 l -1.24894,3.815569 q -0.18333,0.54999 -0.0803,0.7677 0.10322,0.20624 0.46979,0.20624 0.16041,0 0.2177,0.1375 0.0687,0.12613 0.0458,0.29791 -0.0229,0.16042 -0.16042,0.28646 -0.12613,0.13749 -0.36666,0.13749 z m 0,0 q -0.2177,0 -0.28645,-0.13749 -0.0688,-0.12613 -0.0108,-0.28646 0.0572,-0.17196 0.20625,-0.29791 0.1375,-0.1375 0.3552,-0.1375 0.43541,0 0.97394,-0.27499 0.53854,-0.275 1.1229,-0.7677 0.59583,-0.492702 1.19165,-1.134359 0.60728,-0.653115 1.16873,-1.397895 0.57291,-0.74478 1.06561,-1.523935 0.4927,-0.790613 0.87082,-1.55831 0.37812,-0.779154 0.58437,-1.478102 0.2177,-0.710406 0.2177,-1.271856 0,-0.217705 0.14887,-0.320828 0.14905,-0.114582 0.34374,-0.114582 0.20625,0 0.35521,0.114582 0.14886,0.103033 0.14886,0.320828 0,0.527076 -0.19479,1.180191 -0.18333,0.653115 -0.53853,1.386437 -0.34374,0.733322 -0.81353,1.501019 -0.45832,0.767696 -1.01977,1.523935 -0.55,0.74478 -1.15728,1.443728 -0.60728,0.687489 -1.23748,1.271855 -0.6302,0.584362 -1.24894,1.031232 -0.61874,0.43541 -1.19165,0.68749 -0.57291,0.24062 -1.05415,0.24062 z m 4.50304,0 q -0.80207,0 -1.23748,-0.3552 -0.42395,-0.3552 -0.48124,-1.04269 -0.0458,-0.698949 0.27499,-1.730184 l 2.21143,-6.806146 q 0.33228,-1.019776 0.80207,-1.478103 0.46978,-0.458326 1.13435,-0.458326 0.38958,0 0.66458,0.206247 0.28645,0.194789 0.43541,0.549992 0.14886,0.355203 0.14886,0.847903 0,0.217705 -0.14886,0.320829 -0.14887,0.103213 -0.3552,0.103213 -0.19479,0 -0.34375,-0.103213 -0.14887,-0.103033 -0.14887,-0.320829 0,-0.206247 -0.0458,-0.343744 -0.0458,-0.149047 -0.1375,-0.217705 -0.0803,-0.08012 -0.24062,-0.08012 -0.12613,0 -0.26354,0.103213 -0.12613,0.103034 -0.26353,0.343745 -0.1375,0.229163 -0.275,0.664573 l -2.26871,7.012393 q -0.21771,0.68749 -0.21771,1.111442 0.0108,0.42395 0.26354,0.61874 0.25208,0.19479 0.75624,0.19479 0.16041,0 0.22916,0.1375 0.0803,0.12613 0.0458,0.29791 -0.0343,0.16042 -0.17178,0.28646 -0.12613,0.13749 -0.36666,0.13749 z m 0.0108,0 q -0.21771,0 -0.28646,-0.13749 -0.0687,-0.12613 -0.0108,-0.28646 0.0458,-0.17196 0.19478,-0.29791 0.14887,-0.1375 0.36667,-0.1375 0.54999,0 1.18019,-0.20625 0.63019,-0.20624 1.24893,-0.59582 0.12613,-0.0917 0.24063,-0.0229 0.11458,0.0574 0.18333,0.19479 0.0687,0.1375 0.0574,0.28646 0,0.13749 -0.11458,0.20624 -0.56145,0.35521 -1.11145,0.58437 -0.54999,0.2177 -1.04269,0.30937 -0.4927,0.10321 -0.90519,0.10321 z m 2.66975,-1.58122 q 0.38957,-0.19479 0.73332,-0.458329 0.3552,-0.263537 0.64166,-0.549991 0.34374,-0.286454 0.60728,-0.618741 0.27499,-0.343745 0.42395,-0.687489 0.16041,-0.355203 0.16041,-0.676032 0,-0.320828 -0.13749,-0.481242 -0.1375,-0.171783 -0.44687,-0.171783 -0.16042,0 -0.24062,-0.137498 -0.0687,-0.137497 -0.0572,-0.320828 0.0229,-0.18333 0.14886,-0.320828 0.12613,-0.137498 0.36666,-0.137498 0.44687,0 0.75624,0.18333 0.32083,0.171963 0.48124,0.481243 0.16042,0.297912 0.16042,0.687489 0,0.504159 -0.21771,1.008318 -0.20624,0.492701 -0.5729,0.962486 -0.36667,0.458326 -0.83645,0.87082 -0.34374,0.320833 -0.7677,0.595823 -0.41249,0.275 -0.8479,0.50416 z m 1.76455,1.59268 q -0.44686,0 -0.80207,-0.14886 -0.36666,-0.1375 -0.6302,-0.40104 -0.26353,-0.26354 -0.44686,-0.60728 -0.18334,-0.35521 -0.275,-0.75624 -0.0917,-0.412494 -0.0917,-0.836446 0,-0.595824 0.17179,-1.191649 0.17196,-0.607282 0.51561,-1.111441 0.33229,-0.504159 0.83645,-0.802071 0.4927,-0.297912 1.15727,-0.297912 0.12595,0 0.17179,0.137498 0.0343,0.137498 0,0.320828 -0.0458,0.183331 -0.1375,0.320828 -0.10322,0.137498 -0.24062,0.137498 -0.25208,0 -0.46979,0.148866 -0.22916,0.137498 -0.41249,0.389578 -0.18333,0.252079 -0.30937,0.572908 -0.12613,0.30937 -0.19479,0.664573 -0.0687,0.343745 -0.0687,0.664573 0,0.355203 0.0803,0.698948 0.0803,0.343741 0.25208,0.618741 0.16041,0.26354 0.42395,0.43541 0.26354,0.16041 0.6302,0.16041 0.44687,0 0.85936,-0.22916 0.41249,-0.22916 0.81353,-0.65311 0.40103,-0.435415 0.81353,-1.031239 0.42395,-0.607282 0.88228,-1.363521 0.38957,-0.61874 0.7104,-1.008318 0.32083,-0.389577 0.59583,-0.595824 0.27499,-0.206247 0.50416,-0.274996 0.24062,-0.08012 0.48124,-0.08012 0.16041,0 0.2177,0.137498 0.0687,0.12613 0.0458,0.297912 -0.0108,0.160414 -0.11459,0.297912 -0.0917,0.12595 -0.27499,0.12595 -0.14887,0 -0.33229,0.137498 -0.17178,0.12613 -0.38958,0.389577 -0.20624,0.263538 -0.45832,0.630199 -0.24062,0.366661 -0.52708,0.824987 -0.52707,0.882279 -1.03123,1.512485 -0.4927,0.61874 -0.96249,1.01977 -0.48124,0.38958 -0.96248,0.56145 -0.4927,0.18333 -1.03124,0.18333 z m 10.19771,-0.0108 q -0.42395,0 -0.69895,-0.14887 -0.27499,-0.14905 -0.41249,-0.41249 -0.12613,-0.275 -0.12613,-0.61875 0.0108,-0.3552 0.1375,-0.756234 l 0.72186,-2.199966 q 0.11458,-0.343745 0.0803,-0.584366 -0.0229,-0.25208 -0.20625,-0.378119 -0.17178,-0.137498 -0.51562,-0.137498 -0.34374,0 -0.7104,0.171782 -0.36666,0.171963 -0.73332,0.492701 -0.35521,0.320828 -0.68749,0.767696 -0.32083,0.43541 -0.59583,0.973944 l -0.80207,2.50934 q -0.0458,0.14886 -0.17196,0.2177 -0.11458,0.0801 -0.37812,0.0801 -0.18333,0 -0.34375,-0.0801 -0.14886,-0.0801 -0.0801,-0.29791 l 1.39789,-4.354101 q 0.0801,-0.240621 0.0229,-0.366661 -0.0458,-0.12613 -0.25208,-0.12613 -0.16041,0 -0.22916,-0.125949 -0.0687,-0.137498 -0.0572,-0.297912 0.0108,-0.171783 0.11458,-0.297913 0.11458,-0.137497 0.28645,-0.137497 0.32083,0 0.53854,0.09166 0.2177,0.09167 0.34374,0.263537 0.12613,0.171963 0.17196,0.401036 0.0458,0.229163 0.0343,0.481243 l -0.0574,0.206247 q 0.28645,-0.355203 0.58436,-0.618741 0.30937,-0.274996 0.6302,-0.469785 0.32083,-0.194788 0.65312,-0.286454 0.34374,-0.103033 0.68749,-0.103033 0.64165,0 0.97394,0.297912 0.33229,0.297913 0.37812,0.836446 0.0458,0.538533 -0.19479,1.248939 l -0.61874,1.924966 q -0.18333,0.54999 -0.0917,0.7677 0.10322,0.20624 0.48125,0.20624 0.16041,0 0.2177,0.1375 0.0687,0.12613 0.0458,0.29791 -0.0229,0.16042 -0.16041,0.28646 -0.1375,0.1375 -0.37812,0.1375 z m 0.0108,0 q -0.16042,0 -0.22917,-0.1375 -0.0803,-0.12613 -0.0458,-0.28646 0.0229,-0.17196 0.16042,-0.29791 0.13749,-0.1375 0.37811,-0.1375 0.34375,0 0.69895,-0.14886 0.34375,-0.14887 0.69895,-0.45833 0.3552,-0.32083 0.73332,-0.790612 0.38958,-0.469784 0.79062,-1.111441 0.10321,-0.148866 0.24062,-0.137498 0.13749,0.01083 0.20624,0.12613 0.0801,0.103033 0.0108,0.240621 -0.41249,0.802071 -0.8479,1.3979 -0.43541,0.59582 -0.89374,0.9854 -0.44687,0.37812 -0.91665,0.56145 -0.48125,0.19479 -0.9854,0.19479 z m 0.7104,5.706161 q -0.18333,0 -0.34374,-0.0803 -0.16042,-0.0801 -0.0917,-0.29791 l 3.59786,-11.057125 q 0.0803,-0.229164 0.18334,-0.297913 0.11458,-0.06875 0.33228,-0.06875 0.3552,0 0.44687,0.114582 0.10321,0.103033 0.0229,0.332287 l -0.28646,0.882278 q 0.36666,-0.446868 0.7677,-0.74478 0.40103,-0.309371 0.82499,-0.469785 0.43541,-0.160414 0.85936,-0.160414 0.46978,0 0.76769,0.160414 0.30938,0.148866 0.44687,0.446868 0.14887,0.286454 0.14887,0.698948 0,0.423952 -0.12613,0.847904 -0.11458,0.423952 -0.29791,0.813529 -0.18333,0.389577 -0.37812,0.74478 -0.18333,0.355203 -0.30937,0.653116 -0.11458,0.28645 -0.11458,0.50416 0,0.2177 0.14886,0.32083 0.14887,0.0917 0.43541,0.0917 0.16042,0 0.22916,0.1375 0.0803,0.12613 0.0458,0.29791 -0.0345,0.16042 -0.17197,0.28646 -0.12613,0.13749 -0.36666,0.13749 -0.58436,0 -0.93957,-0.30937 -0.3552,-0.30937 -0.3552,-0.83644 0,-0.30937 0.11458,-0.66457 0.12613,-0.366666 0.30937,-0.744786 0.18333,-0.378119 0.36666,-0.74478 0.18334,-0.378119 0.29792,-0.721864 0.12613,-0.343745 0.12613,-0.61874 0,-0.286454 -0.18333,-0.43541 -0.18333,-0.160415 -0.55,-0.160415 -0.34374,0 -0.7104,0.171783 -0.3552,0.171962 -0.72187,0.4927 -0.3552,0.309371 -0.68748,0.744781 -0.33229,0.43541 -0.60729,0.973943 l -2.69266,8.261339 q -0.0458,0.14886 -0.16042,0.2177 -0.11458,0.0803 -0.37812,0.0803 z m 6.78323,-5.706161 q -0.16041,0 -0.22916,-0.1375 -0.0803,-0.12613 -0.0458,-0.28646 0.0229,-0.17196 0.16041,-0.29791 0.1375,-0.1375 0.37812,-0.1375 0.29791,0 0.60728,-0.12613 0.29792,-0.12595 0.59583,-0.36666 0.29791,-0.25208 0.54999,-0.595822 0.25208,-0.343745 0.44687,-0.767697 0.0572,-0.171782 0.19479,-0.160414 0.14886,0 0.25208,0.114582 0.11458,0.103033 0.0687,0.263537 -0.20624,0.584364 -0.52707,1.054154 -0.32083,0.45832 -0.71041,0.77915 -0.38957,0.32083 -0.83644,0.4927 -0.44687,0.17197 -0.9052,0.17197 z m 3.84994,0 q -0.4927,0 -0.8479,-0.21771 -0.3552,-0.22916 -0.54999,-0.65311 -0.18333,-0.42396 -0.18333,-0.99686 0,-0.504164 0.1375,-1.08853 0.14886,-0.584366 0.43541,-1.145816 0.29791,-0.561449 0.73332,-1.019776 0.44687,-0.469784 1.04269,-0.74478 0.59583,-0.274996 1.35206,-0.274996 0.4927,0 0.96249,0.194789 0.46978,0.18333 0.8479,0.469784 l -0.14886,0.790613 q -0.4927,-0.320828 -0.88228,-0.43541 -0.37812,-0.114581 -0.75624,-0.114581 -0.58437,0 -1.03123,0.217705 -0.43541,0.217705 -0.75624,0.584366 -0.30937,0.366661 -0.51562,0.802071 -0.19479,0.43541 -0.29791,0.87082 -0.0917,0.423952 -0.0917,0.767696 0,0.355205 0.10304,0.595825 0.10321,0.22916 0.29791,0.3552 0.19479,0.12595 0.48124,0.12595 0.40104,0 0.82499,-0.28645 0.42395,-0.28646 0.8479,-0.824989 0.43541,-0.549992 0.82499,-1.294772 l 0.25208,0.504159 q -0.50416,1.088522 -1.06561,1.707262 -0.56145,0.61874 -1.08852,0.87082 -0.51562,0.24062 -0.92812,0.24062 z m 3.42599,0 q -0.43541,0 -0.7104,-0.14887 -0.275,-0.14905 -0.4125,-0.41249 -0.12613,-0.275 -0.12613,-0.61875 0.0108,-0.3552 0.1375,-0.756234 l 1.24894,-3.79265 q 0.0801,-0.229163 0.18333,-0.297912 0.11458,-0.06875 0.33229,-0.06875 0.3552,0 0.44687,0.114581 0.10303,0.103034 0.0229,0.332287 l -1.24894,3.815568 q -0.18333,0.54999 -0.0803,0.7677 0.10321,0.20624 0.46978,0.20624 0.16042,0 0.21771,0.1375 0.0687,0.12613 0.0458,0.29791 -0.0229,0.16042 -0.16042,0.28646 -0.12613,0.1375 -0.36666,0.1375 z m 0,0 q -0.2177,0 -0.28645,-0.1375 -0.0687,-0.12613 -0.0108,-0.28646 0.0572,-0.17196 0.20625,-0.29791 0.1375,-0.1375 0.3552,-0.1375 0.43541,0 0.97395,-0.27499 0.53853,-0.275 1.1229,-0.7677 0.59582,-0.4927 1.19164,-1.134357 0.60729,-0.653115 1.16874,-1.397895 0.5729,-0.744781 1.06561,-1.523935 0.4927,-0.790613 0.87082,-1.55831 0.37811,-0.779155 0.58436,-1.478102 0.21771,-0.710406 0.21771,-1.271856 0,-0.217705 0.14886,-0.320829 0.14887,-0.114581 0.34375,-0.114581 0.20624,0 0.3552,0.114581 0.14887,0.103034 0.14887,0.320829 0,0.527075 -0.19479,1.18019 -0.18333,0.653115 -0.53854,1.386437 -0.34374,0.733323 -0.81353,1.501019 -0.45832,0.767697 -1.01977,1.523935 -0.54999,0.744781 -1.15728,1.443728 -0.60728,0.68749 -1.23748,1.271856 -0.6302,0.58437 -1.24894,1.03123 -0.61874,0.43541 -1.19164,0.68749 -0.57291,0.24063 -1.05416,0.24063 z m 4.50304,0 q -0.80207,0 -1.23748,-0.35521 -0.42395,-0.3552 -0.48124,-1.04269 -0.0458,-0.698948 0.27499,-1.730182 l 2.21143,-6.806147 q 0.33229,-1.019776 0.80207,-1.478102 0.46978,-0.458326 1.13436,-0.458326 0.38957,0 0.66457,0.206247 0.28645,0.194788 0.43541,0.549991 0.14887,0.355203 0.14887,0.847904 0,0.217705 -0.14887,0.320828 -0.14887,0.103214 -0.3552,0.103214 -0.19479,0 -0.34375,-0.103214 -0.14886,-0.103033 -0.14886,-0.320828 0,-0.206247 -0.0458,-0.343745 -0.0458,-0.149046 -0.13749,-0.217705 -0.0801,-0.08012 -0.24062,-0.08012 -0.12613,0 -0.26354,0.103214 -0.12613,0.103033 -0.26354,0.343745 -0.1375,0.229163 -0.275,0.664573 l -2.26871,7.012393 q -0.21771,0.687489 -0.21771,1.11144 0.0108,0.42396 0.26354,0.61874 0.25208,0.19479 0.75624,0.19479 0.16041,0 0.22916,0.1375 0.0803,0.12613 0.0458,0.29791 -0.0343,0.16042 -0.17179,0.28646 -0.12613,0.1375 -0.36666,0.1375 z m 0.0108,0 q -0.21771,0 -0.28646,-0.1375 -0.0687,-0.12613 -0.0108,-0.28646 0.0458,-0.17196 0.19479,-0.29791 0.14886,-0.1375 0.36666,-0.1375 0.54999,0 1.18019,-0.20624 0.6302,-0.20625 1.24894,-0.59583 0.12613,-0.0917 0.24062,-0.0229 0.11458,0.0574 0.18333,0.19478 0.0687,0.1375 0.0574,0.28646 0,0.1375 -0.11458,0.20625 -0.56145,0.3552 -1.11144,0.58436 -0.54999,0.21771 -1.0427,0.30937 -0.4927,0.10322 -0.90519,0.10322 z m 2.66975,-1.58123 q 0.38958,-0.19479 0.73332,-0.458327 0.3552,-0.263538 0.64166,-0.549992 0.34374,-0.286454 0.60728,-0.61874 0.275,-0.343745 0.42395,-0.68749 0.16042,-0.355203 0.16042,-0.676031 0,-0.320829 -0.1375,-0.481243 -0.1375,-0.171782 -0.44687,-0.171782 -0.16041,0 -0.24062,-0.137498 -0.0687,-0.137498 -0.0572,-0.320828 0.0229,-0.183331 0.14886,-0.320829 0.12613,-0.137498 0.36667,-0.137498 0.44686,0 0.75623,0.183331 0.32083,0.171962 0.48125,0.481242 0.16041,0.297913 0.16041,0.68749 0,0.504159 -0.2177,1.008318 -0.20625,0.492701 -0.57291,0.962485 -0.36666,0.458327 -0.83645,0.87082 -0.34374,0.320832 -0.76769,0.595822 -0.4125,0.275 -0.84791,0.50416 z m 1.99372,1.59268 q -0.51562,0 -0.91665,-0.14886 -0.4125,-0.1375 -0.69895,-0.40104 -0.28646,-0.26354 -0.48124,-0.60728 -0.19479,-0.3552 -0.28646,-0.75624 -0.0917,-0.412493 -0.0917,-0.836445 0,-0.595824 0.17178,-1.191648 0.17178,-0.607283 0.51562,-1.111442 0.33228,-0.504158 0.83644,-0.802071 0.4927,-0.297912 1.15728,-0.297912 0.12613,0 0.17196,0.137498 0.0343,0.137498 0,0.320829 -0.0458,0.18333 -0.1375,0.320828 -0.10321,0.137498 -0.24062,0.137498 -0.32083,0 -0.58437,0.229163 -0.26353,0.217705 -0.45832,0.584366 -0.19479,0.355203 -0.29792,0.790613 -0.11458,0.423952 -0.11458,0.836446 0,0.355203 0.0917,0.698947 0.0803,0.34375 0.27499,0.61874 0.19479,0.26354 0.51562,0.43541 0.32083,0.16042 0.79061,0.16042 0.64166,0 1.29478,-0.34375 0.65311,-0.34374 1.24894,-0.996859 0.60728,-0.653115 1.07706,-1.592684 0.0458,-0.09167 0.17178,-0.08012 0.1375,0 0.22917,0.09166 0.10303,0.08012 0.0229,0.263538 -0.50415,1.134357 -1.2031,1.924965 -0.69895,0.79062 -1.47811,1.20311 -0.79061,0.41249 -1.58122,0.41249 z m 4.15929,-0.0108 q -0.42395,0 -0.7104,-0.14887 -0.275,-0.14905 -0.4125,-0.41249 -0.12613,-0.275 -0.12613,-0.61874 0,-0.34375 0.1375,-0.756242 l 1.23748,-3.79265 q 0.0803,-0.229164 0.18333,-0.297913 0.11458,-0.06875 0.33229,-0.06875 0.3552,0 0.44687,0.114582 0.10321,0.103033 0.0229,0.332287 l -1.23748,3.815566 q -0.19479,0.54999 -0.0917,0.7677 0.10303,0.20624 0.48124,0.20624 0.16041,0 0.22916,0.1375 0.0687,0.12613 0.0343,0.29792 -0.0229,0.16041 -0.16042,0.28645 -0.12613,0.1375 -0.36666,0.1375 z m 1.35207,-7.8603 q -0.22917,0 -0.38958,-0.149047 -0.16042,-0.148865 -0.16042,-0.43541 0,-0.30937 0.19479,-0.584366 0.20625,-0.274995 0.6302,-0.274995 0.24062,0 0.40104,0.148865 0.16041,0.137498 0.16041,0.43541 0,0.309371 -0.20625,0.584367 -0.19478,0.274995 -0.63019,0.274995 z m -1.36353,7.8603 q -0.16041,0 -0.2177,-0.1375 -0.0687,-0.12613 -0.0345,-0.28646 0.0345,-0.17196 0.17197,-0.29791 0.12595,-0.1375 0.34374,-0.1375 0.38958,0 0.81353,-0.33228 0.4125,-0.33229 0.84791,-0.928113 0.44686,-0.595824 0.88227,-1.374979 0.44687,-0.779155 0.87082,-1.672891 0.0801,-0.18333 0.25208,-0.149046 0.17179,0.02292 0.28646,0.171962 0.11458,0.137498 0.0458,0.286454 -0.41249,0.859362 -0.80207,1.604143 -0.38958,0.733322 -0.79061,1.3406 -0.40104,0.59583 -0.82499,1.03124 -0.42395,0.42395 -0.87082,0.65311 -0.45833,0.22917 -0.97395,0.22917 z m 4.48013,0.0229 q -0.37812,0 -0.72187,-0.0688 -0.33228,-0.0687 -0.60728,-0.19478 -0.275,-0.1375 -0.4927,-0.30937 -0.0917,-0.0574 -0.10321,-0.17197 -0.0108,-0.12613 0.10321,-0.30937 0.11458,-0.16041 0.22916,-0.2177 0.12613,-0.0574 0.275,0.0458 0.27499,0.18333 0.61874,0.30937 0.34374,0.12613 0.7104,0.12613 0.43541,0 0.72187,-0.10321 0.29791,-0.10304 0.44687,-0.30937 0.14886,-0.21771 0.14886,-0.51562 0,-0.297913 -0.17178,-0.492702 -0.16041,-0.194789 -0.42395,-0.343745 -0.25208,-0.160414 -0.54999,-0.30937 -0.29791,-0.160414 -0.56145,-0.355203 -0.25208,-0.206247 -0.42395,-0.504159 -0.16042,-0.30937 -0.16042,-0.756238 0,-0.423952 0.20625,-0.802071 0.2177,-0.389578 0.67603,-0.630199 0.46978,-0.25208 1.18019,-0.25208 0.51562,0 0.92811,0.12595 0.41249,0.12613 0.68749,0.320828 0.28645,0.194789 0.42395,0.401036 0.11458,0.148866 0.11458,0.263538 0,0.103033 -0.16041,0.240621 -0.1375,0.103214 -0.25208,0.137498 -0.11458,0.03446 -0.24062,-0.08012 -0.275,-0.25208 -0.65312,-0.43541 -0.37812,-0.183331 -0.87082,-0.183331 -0.56145,0 -0.80207,0.229163 -0.24062,0.229164 -0.24062,0.56145 0,0.286454 0.16042,0.492701 0.17178,0.206247 0.42395,0.366661 0.26353,0.148866 0.54999,0.30937 0.29791,0.160415 0.54999,0.366662 0.26354,0.194788 0.42395,0.481242 0.17196,0.274996 0.17196,0.710408 0,0.66457 -0.30937,1.07707 -0.30937,0.41249 -0.83644,0.59582 -0.52708,0.18333 -1.16873,0.18333 z"
       id="text40-9-0-9"
       aria-label="het verhalenpaleis" />
    <path
       id="path18-7-7-6"
       style="fill:none;stroke:#000000;stroke-width:0.747189;stroke-linecap:round;stroke-linejoin:round;stroke-dasharray:none"
       d="m 63.611698,73.306373 c 0,2.040702 -1.94847,1.682746 -1.21898,3.593242 -4.897424,0.587709 -8.874937,4.483166 -9.55225,9.57541 -1.022932,-1.225129 -2.495762,-2.038108 -4.118358,-2.323676 6.88e-4,-0.003 0.0015,-0.006 0.0022,-0.0093 0.449531,-2.121749 -1.287333,-1.569935 -1.287333,-3.613707 0,2.044676 -1.956119,1.680952 -1.214736,3.604053 0,0 -6.94e-4,0.0052 -7.47e-4,0.006 -3.166289,0.532769 -5.567592,3.074221 -5.567472,6.135464 0.021,1.363971 0.527934,2.684098 1.443316,3.758497 1.642763,-0.53779 3.539727,-0.825533 5.477899,-0.830927 1.862497,0.0015 3.690428,0.263152 5.293717,0.758726 0.340853,-0.423455 0.62199,-0.884799 0.836725,-1.37305 0.20881,0.476273 0.450085,0.93702 0.722039,1.37884 2.593524,-1.281997 5.859377,-1.984467 9.232154,-1.98582 3.351966,0.0015 6.599027,0.695327 9.185423,1.963039 0.277991,-0.450354 0.524063,-0.920433 0.736332,-1.406637 0.226264,0.53185 0.530923,1.032683 0.905459,1.488491 1.645513,-0.540135 3.546961,-0.829133 5.489862,-0.834401 1.874377,0.0015 3.713509,0.266455 5.323836,0.767991 0.866359,-1.057744 1.344209,-2.340937 1.364547,-3.664284 -7.4e-5,-2.99862 -2.303487,-5.501234 -5.373643,-6.103028 0.0037,-0.01674 0.0079,-0.0319 0.01158,-0.04901 0.449531,-2.121749 -1.287333,-1.569935 -1.287333,-3.613707 0,2.044676 -1.956119,1.680952 -1.214735,3.604053 0,0 -0.0022,0.01405 -0.003,0.01659 -1.715091,0.268442 -3.271135,1.124946 -4.323013,2.428701 -0.636389,-5.141813 -4.637356,-9.089588 -9.573095,-9.678119 0.433527,-2.09692 -1.2908,-1.556291 -1.2908,-3.593241 z" />
    <path
       style="fill:none;stroke:#000000;stroke-width:0.747189;stroke-linecap:round;stroke-linejoin:round;stroke-dasharray:none;stroke-opacity:1"
       d="m 54.427812,93.965771 v 3.491802"
       id="path22-1-0-7" />
    <path
       style="fill:none;stroke:#000000;stroke-width:0.747189;stroke-linecap:round;stroke-linejoin:round;stroke-dasharray:none;stroke-opacity:1"
       d="m 72.845389,93.942989 -0.0045,3.514584"
       id="path23-5-0-3" />
    <path
       style="fill:none;stroke:#000000;stroke-width:0.747189;stroke-linecap:round;stroke-linejoin:round;stroke-dasharray:none;stroke-opacity:1"
       d="m 74.487181,94.024843 v 3.359035"
       id="path24-0-8-6" />
    <path
       style="fill:none;stroke:#000000;stroke-width:0.747189;stroke-linecap:round;stroke-linejoin:round;stroke-dasharray:none;stroke-opacity:1"
       d="m 85.300879,93.958433 0.02129,8.521677"
       id="path25-5-9-5"
       sodipodi:nodetypes="cc" />
    <path
       style="fill:none;stroke:#000000;stroke-width:0.747189;stroke-linecap:round;stroke-linejoin:round;stroke-dasharray:none;stroke-opacity:1"
       d="m 52.869041,93.95998 v 3.40474"
       id="path26-6-3-6" />
    <path
       style="fill:none;stroke:#000000;stroke-width:0.747189;stroke-linecap:round;stroke-linejoin:round;stroke-dasharray:none;stroke-opacity:1"
       d="m 42.097432,94.032181 0.0021,8.447929"
       id="path27-6-5-3"
       sodipodi:nodetypes="cc" />
    <path
       id="path39-8-2-4-4"
       style="fill:none;stroke:#000000;stroke-width:0.747189;stroke-linecap:round;stroke-dasharray:none;stroke-opacity:1"
       d="m 40.394827,104.08754 c 7.341113,-0.11205 18.930549,0.659 23.184697,2.26051 4.254145,-1.60151 15.843582,-2.37256 23.184695,-2.26051"
       sodipodi:nodetypes="ccc" />
  </g>
</svg>
